<?xml version="1.0" encoding="UTF-8" standalone="no"?>
<!-- Created with Inkscape (http://www.inkscape.org/) -->

<svg
   width="55.751247mm"
   height="68.12751mm"
   viewBox="0 0 55.751247 68.12751"
   version="1.1"
   id="svg1"
   xml:space="preserve"
   xmlns="http://www.w3.org/2000/svg"
   xmlns:svg="http://www.w3.org/2000/svg"><defs
     id="defs1" /><g
     id="layer1"
     transform="translate(-62.84358,-31.38903)"><path
       style="fill:#0088aa"
       d="m 79.091817,99.324067 c -0.01622,-0.11243 -0.0043,-3.47494 0.02651,-7.47226 0.04815,-6.24948 0.125407,-7.4926 0.55139,-8.87177 0.272468,-0.88215 0.614854,-2.44619 0.760857,-3.47564 0.146002,-1.02945 0.339258,-2.06405 0.429457,-2.2991 0.09373,-0.24425 -0.07359,-0.72942 -0.390491,-1.13229 -0.696823,-0.88587 -0.697715,-1.58849 -0.0042,-3.3427 0.302634,-0.76554 0.681498,-2.3444 0.841921,-3.50857 0.278705,-2.02253 0.292197,-7.79351 0.01887,-8.06889 -0.131538,-0.13253 -1.119568,0.92513 -2.626142,2.81121 -0.450032,0.56339 -0.966705,1.47515 -1.148163,2.02613 -0.181459,0.55097 -0.676454,1.25797 -1.099991,1.57111 -0.423536,0.31313 -0.770066,0.71523 -0.770066,0.89354 0,0.47277 -3.082193,4.57522 -4.27282,5.6872 -0.560366,0.52335 -1.018847,1.10535 -1.018847,1.29333 0,0.18798 -0.457769,0.8384 -1.017266,1.44538 -0.943488,1.02357 -1.030932,1.25442 -1.205697,3.18302 -0.183351,2.02334 -0.648099,3.62327 -1.140973,3.92789 -0.449513,0.27781 -2.199277,-0.51765 -3.136205,-1.42576 -1.352027,-1.31043 -1.3747,-1.76909 -0.178909,-3.61921 0.567578,-0.87816 1.235903,-2.29442 1.485168,-3.14725 0.249265,-0.85284 0.62478,-1.84827 0.834479,-2.21207 0.2097,-0.3638 0.568984,-1.07818 0.79841,-1.5875 0.846567,-1.87937 3.933866,-7.83026 4.461107,-8.59896 0.299432,-0.43656 0.805469,-1.09141 1.124527,-1.45521 1.184118,-1.35017 2.505218,-3.40581 4.506057,-7.01146 1.143099,-2.05994 2.613188,-4.29955 3.311864,-5.04546 1.138355,-1.21533 1.579576,-1.46075 4.69778,-2.61305 1.892787,-0.69946 3.620187,-1.40556 3.838677,-1.56912 0.3529,-0.26416 0.35092,-0.4894 -0.0177,-2.01716 -0.58413,-2.42081 -0.1014,-7.55828 0.99592,-10.59905 0.88893,-2.46331 6.63173,-2.19099 8.92712,0.42331 1.708549,1.94594 1.766859,4.89367 0.16357,8.26973 -1.06497,2.24253 -1.08233,2.36498 -0.50644,3.57263 0.31875,0.66842 0.89672,1.13586 2.315099,1.87235 5.28982,2.74672 5.42437,2.84249 6.74482,4.80068 0.68885,1.02154 1.47605,2.56935 1.74932,3.43958 0.64907,2.06694 2.90985,6.90025 3.73141,7.97738 0.35473,0.46507 0.64497,0.93345 0.64497,1.04084 0,0.10739 0.16973,0.38323 0.37719,0.61297 0.95106,1.05319 3.49869,10.44746 4.02378,14.8375 0.21758,1.81901 0.45883,3.80554 0.53612,4.41451 l 0.14053,1.10721 -1.38016,0.69938 c -1.00878,0.51119 -1.56734,0.64694 -2.07579,0.50448 -0.3826,-0.10719 -0.86192,-0.20579 -1.06515,-0.21909 -0.20324,-0.0133 -0.52415,-0.46986 -0.71313,-1.01456 -0.28913,-0.83336 -0.28015,-1.21085 0.0566,-2.38125 0.74081,-2.57467 0.74074,-2.78893 -10e-4,-3.8596 -0.38089,-0.54962 -0.69252,-1.24475 -0.69252,-1.54473 0,-0.29997 -0.23813,-0.84813 -0.52917,-1.21813 -0.29104,-0.37 -0.52917,-0.78571 -0.52917,-0.9238 0,-0.42108 -2.73843,-5.7149 -3.37344,-6.52138 -0.32742,-0.41584 -0.59531,-1.06153 -0.59531,-1.43487 0,-0.64227 -3.12018,-5.74285 -3.36396,-5.49907 -0.0615,0.0615 -0.23161,0.98669 -0.37807,2.05602 -0.14646,1.06934 -0.54867,2.64736 -0.89381,3.50672 -0.55807,1.38952 -0.59496,1.70353 -0.33335,2.83693 0.22087,0.95684 0.21492,1.62865 -0.0239,2.69571 -0.17657,0.78899 -0.23904,1.9154 -0.14043,2.53207 0.14772,0.92379 0.0814,1.21326 -0.39386,1.71915 -0.54776,0.58307 -0.55619,0.67323 -0.20315,2.17162 0.20258,0.85982 0.69513,2.33539 1.09454,3.27906 0.61168,1.44515 0.69656,1.92504 0.53818,3.04271 -0.22257,1.57069 -0.23245,0.81966 0.10064,7.65492 0.14833,3.04382 0.20837,5.63343 0.13343,5.75469 -0.0749,0.12125 -2.26251,0.22047 -4.861259,0.22047 h -4.725 l -0.41372,-1.12448 c -0.22754,-0.61847 -0.7729,-2.25558 -1.21191,-3.63802 -0.83131,-2.61779 -1.19318,-3.39858 -1.45418,-3.13758 -0.0849,0.0849 -0.66678,1.86741 -1.29303,3.96109 l -1.13865,3.80669 -4.806764,0.0721 c -2.64372,0.0397 -4.820032,-0.0199 -4.836247,-0.13229 z m 37.535313,-14.37731 c 0.93454,-0.63071 1.25164,-0.73386 1.42338,-0.46302 0.34681,0.54693 0.26245,-0.0448 -0.25207,-1.76819 l -0.47396,-1.5875 -1.36083,-0.0795 c -1.25933,-0.0736 -1.38912,-0.0242 -1.74012,0.66145 -0.64046,1.25118 -0.80055,2.84703 -0.32517,3.24156 0.34896,0.28961 0.41248,0.26491 0.41248,-0.16037 0,-1.26217 1.64194,-2.26966 2.03397,-1.24804 0.21718,0.56596 -0.98695,1.53892 -1.32705,1.07228 -0.14437,-0.19808 -0.17014,-0.13504 -0.0704,0.17227 0.0865,0.26657 0.15725,0.59399 0.15725,0.72761 0,0.386 0.24212,0.29559 1.52254,-0.56856 z m -50.631014,-2.69728 c 0.150771,-0.23902 0.172742,-0.52959 0.04883,-0.64572 -0.123916,-0.11612 -0.28438,-0.0445 -0.356585,0.1591 -0.09734,0.27451 -0.255296,0.20611 -0.610951,-0.26458 -0.381224,-0.50453 -0.54704,-0.56765 -0.807948,-0.30758 -0.261187,0.26034 -0.19963,0.46416 0.301194,0.99727 0.680577,0.72444 0.998641,0.73816 1.425464,0.0615 z m 1.701142,-1.74796 0.10213,-1.80746 -1.113778,-0.44564 c -0.612578,-0.24511 -1.309612,-0.38292 -1.548964,-0.30626 -0.586015,0.1877 -2.024099,2.50064 -1.727342,2.77817 0.306608,0.28674 1.991681,0.0219 1.803008,-0.28337 -0.07986,-0.12922 0.03366,-0.23495 0.252281,-0.23495 0.509412,0 1.221242,1.01103 1.221242,1.73457 0,0.30717 0.08136,0.63985 0.180799,0.73929 0.402535,0.40253 0.734054,-0.4653 0.830624,-2.17435 z m 25.495423,-30.78392 c -0.18986,-0.18985 -0.31309,-0.20547 -0.31309,-0.0397 0,0.35316 0.31289,0.66605 0.48947,0.48947 0.0752,-0.0752 -0.004,-0.27759 -0.17638,-0.44979 z m 1.76275,-0.36188 c 0.38625,-0.23056 0.91469,-0.70482 1.17431,-1.0539 0.44118,-0.59322 0.44352,-0.67819 0.0357,-1.30058 -0.58164,-0.88771 -0.806,-0.84035 -1.16446,0.24579 -0.19251,0.58332 -0.4285,0.86271 -0.65521,0.77571 -0.4902,-0.18811 -0.75402,0.33281 -0.56002,1.10577 0.19144,0.76276 0.25259,0.77464 1.16967,0.22721 z m 3.39522,-2.92645 -0.37676,-0.71907 -0.57556,1.30115 -0.57556,1.30114 0.87268,0.71424 0.87268,0.71425 0.0796,-1.29632 c 0.0467,-0.75939 -0.0764,-1.59415 -0.29712,-2.01539 z m -8.45745,2.08401 0.5855,-0.37384 -0.57045,-0.77157 c -0.67923,-0.91871 -0.90791,-0.76172 -1.15646,0.79393 -0.19902,1.24569 -0.23953,1.23322 1.14141,0.35148 z m 7.31754,-2.24408 c 0.23388,-0.87274 0.20145,-3.10885 -0.0451,-3.10885 -0.11652,0 -0.47865,0.54913 -0.80473,1.2203 -0.54906,1.13013 -0.56228,1.26699 -0.17892,1.85209 0.51779,0.79024 0.82384,0.80109 1.02875,0.0365 z m -4.47845,-0.25731 c 0.4251,-0.60692 0.57042,-2.05779 0.2061,-2.05779 -0.11318,0 -0.40967,0.23812 -0.65887,0.52916 -0.50544,0.59031 -1.50775,0.69677 -1.99285,0.21167 -0.24695,-0.24695 -0.3175,-0.19747 -0.3175,0.22264 0,0.49054 0.10932,0.52354 1.19062,0.35944 0.92098,-0.13977 1.19063,-0.0984 1.19063,0.18277 0,0.48906 -1.07915,0.8714 -1.63625,0.57972 -0.69962,-0.36631 -0.93083,-0.25698 -0.3637,0.17197 0.76868,0.5814 1.90127,0.4865 2.38182,-0.19958 z m -0.70386,-1.74933 c 0.079,-0.23985 -0.0773,-0.32465 -0.48771,-0.26458 -0.33224,0.0486 -0.65641,0.24725 -0.7204,0.4414 -0.079,0.23985 0.0773,0.32466 0.48772,0.26458 0.33223,-0.0486 0.65641,-0.24725 0.72039,-0.4414 z m 1.90949,-1.22144 c 0,-0.19392 0.2697,-0.42026 0.59933,-0.503 0.32963,-0.0827 1.00805,-0.57212 1.50761,-1.08753 0.70562,-0.72802 0.83755,-1.00783 0.59129,-1.25409 -0.17434,-0.17434 -0.31698,-0.71408 -0.31698,-1.19942 0,-0.48534 -0.19275,-1.17661 -0.42833,-1.53615 -0.36697,-0.56006 -0.37906,-0.77266 -0.0844,-1.48405 0.3179,-0.76748 0.29559,-0.86948 -0.29475,-1.34751 -0.56883,-0.46061 -0.88517,-0.49683 -2.89217,-0.33115 -1.23942,0.10232 -2.35493,0.24769 -2.47892,0.32304 -0.35851,0.2179 -0.99791,1.92209 -0.8257,2.20073 0.086,0.13912 0.44695,0.25294 0.80216,0.25294 0.44025,0 0.64456,0.1474 0.6418,0.46302 -0.006,0.73768 -0.46043,1.25677 -1.09911,1.25677 -0.47491,0 -0.63438,0.207 -0.81529,1.05833 -0.12369,0.58209 -0.13945,1.47506 -0.035,1.98438 l 0.18987,0.92604 0.30035,-1.32292 c 0.29625,-1.30485 0.31641,-1.32516 1.47711,-1.48785 0.64722,-0.0907 1.27846,-0.10579 1.40275,-0.0335 0.39467,0.22953 1.21737,2.28616 1.22341,3.05832 0.003,0.42696 0.1184,0.67364 0.2704,0.5797 0.14552,-0.0899 0.26458,-0.32218 0.26458,-0.5161 z m -2.03217,-4.50804 c -0.30124,-0.21099 -0.61511,-0.64133 -0.69747,-0.95631 -0.14342,-0.54841 -0.088,-0.5663 1.30821,-0.4222 1.55799,0.1608 2.28567,0.55957 2.16038,1.18388 -0.10941,0.54521 -2.07364,0.68317 -2.77112,0.19463 z m 0.44467,2.5106 c 0,-0.14552 -0.12609,-0.26458 -0.2802,-0.26458 -0.15411,0 -0.20661,0.11906 -0.11668,0.26458 0.0899,0.14552 0.21603,0.26458 0.2802,0.26458 0.0642,0 0.11668,-0.11906 0.11668,-0.26458 z m 5.46521,-0.92811 c 0.35749,-0.77076 -0.0249,-0.90239 -0.42882,-0.14762 -0.32509,0.60745 -0.34416,0.81188 -0.0754,0.80908 0.10914,-10e-4 0.33606,-0.29879 0.50427,-0.66146 z m 0.88479,0.39894 c 0,-0.14552 -0.11906,-0.26458 -0.26458,-0.26458 -0.14553,0 -0.26459,0.11906 -0.26459,0.26458 0,0.14552 0.11906,0.26459 0.26459,0.26459 0.14552,0 0.26458,-0.11907 0.26458,-0.26459 z"
       id="path1" /></g></svg>
