<?xml version="1.0" encoding="UTF-8" standalone="no"?>
<!-- Created with Inkscape (http://www.inkscape.org/) -->

<svg
   width="30.877502mm"
   height="73.33699mm"
   viewBox="0 0 30.877502 73.33699"
   version="1.1"
   id="svg1"
   xml:space="preserve"
   xmlns="http://www.w3.org/2000/svg"
   xmlns:svg="http://www.w3.org/2000/svg"><defs
     id="defs1" /><g
     id="layer1"
     transform="translate(-89.553118,-83.611618)"><path
       style="fill:#ffcc00;stroke:#554400"
       d="m 91.538507,97.09415 c -2.753544,0.47814 -0.961811,6.2482 -0.261521,7.9375 2.211794,5.33548 2.389926,10.93329 4.1629,16.40417 0.897494,2.7694 2.529143,4.96634 4.036121,7.40833 l -1.058333,-0.79375 c 0.0016,2.34628 0.832156,4.84211 0.661662,7.14375 -0.284501,3.84074 -2.528096,8.02661 -3.730094,11.64167 -0.643777,1.93618 -3.586368,4.96255 -2.476591,7.12925 0.772127,1.50748 3.260347,1.80321 4.751273,2.01785 4.673796,0.67289 9.602776,0.54454 14.287496,0.0686 1.55049,-0.15752 4.66072,-0.43431 5.35598,-2.12176 0.80175,-1.94592 -1.2771,-4.42689 -2.08074,-6.03561 -1.84087,-3.68506 -3.77025,-8.324 -4.41135,-12.43542 -0.25653,-1.64516 0.69444,-3.42238 1.01729,-5.02708 0.9315,-4.62979 2.67949,-9.11666 3.82299,-13.75833 l -1.5875,1.5875 c 2.28007,-5.47651 3.64534,-10.74657 5.3817,-16.40417 0.49424,-1.6104 1.18543,-5.140711 -0.88378,-5.820834 C 117.20559,79.44383 91.675797,80.51128 91.538507,97.09415 m 14.022913,-12.7 v 0.264583 l -3.70416,0.264583 3.70416,-0.529166 m -6.085413,1.322916 v 0.529167 H 98.94684 l 0.529167,-0.529167 m 2.116663,1.852084 -0.79375,1.852083 0.79375,-1.852083 m -1.85208,1.058333 h -1.852083 c 0.687525,-0.694232 1.273622,-0.879339 1.852083,0 m 14.2875,-0.79375 0.79375,2.116667 0.52917,-0.529167 c 2.48602,4.275466 2.51492,13.146927 -3.175,15.081247 v 0.52917 c 3.25311,0.75511 5.15474,-3.3667 5.55625,-6.085417 h 0.26458 c 0.67876,5.399097 -4.48348,8.724047 -4.49792,13.758337 l 2.64584,-3.70417 h 0.26458 c -0.39266,1.6973 -1.24292,6.03502 -2.96676,6.84324 -1.2369,0.57991 -2.24063,-0.10023 -3.64782,0.82968 l 0.26458,-0.79375 c -2.42723,-1.32036 -2.69469,-4.66703 -3.175,-7.14375 h -0.26458 l -0.26459,2.91041 h -0.26458 l -1.32292,-8.20208 h -0.26458 c -1.3646,4.2735 -6.777025,6.63401 -10.308134,3.39059 -2.395546,-2.20038 -2.921032,-5.33004 -2.921032,-8.417674 h 0.264583 c 1.011716,3.495864 2.862444,7.097974 6.614583,8.202084 v 0.26458 h -1.058333 v 0.26459 c 3.945273,-4.4e-4 6.379293,-1.35789 7.408333,-5.29167 -2.27621,2.49643 -2.9646,3.72522 -6.614583,3.43958 l 0.417699,-6.61458 1.963554,-3.439584 c -2.157466,-0.07153 -2.605111,-1.79251 -2.645836,-3.704166 h 0.264583 l 0.79375,3.175 c 0.820291,-0.146309 3.256833,-0.791417 2.856923,-2.04174 -0.2134,-0.66722 -1.02589,-0.917826 -1.26942,-1.662427 l 4.49791,2.116667 0.79375,3.175 h 0.26459 c 0.59688,-1.586313 1.11806,-2.813084 2.91041,-3.175 l 1.05834,1.322916 0.79375,3.439584 -1.05834,-0.79375 1.32292,2.91042 h 0.52917 l 0.26458,-0.264587 -1.32292,-4.233333 c 1.94845,0.861615 1.40379,-0.404118 1.32292,-1.852084 l 0.52917,0.529167 c 1.29813,-2.201569 1.2544,-2.402938 0.26458,-4.7625 l 1.85208,1.322917 -0.26458,-2.910417 m -17.550695,0.705553 -0.08819,0.176394 0.08819,-0.176394 m -0.440971,0.0882 1.322916,0.264583 1.058334,0.79375 -2.910417,1.058334 -0.79375,-1.322917 1.322917,-0.79375 m 19.049996,1.322917 -0.52916,1.322916 c 0.66372,-0.37928 0.87906,-0.613455 0.52916,-1.322916 m -1.23472,3.086807 0.0882,0.176386 -0.0882,-0.176386 m 0.17639,1.411109 0.79375,1.322917 c -0.25647,0.794008 -0.2957,1.25843 0.52917,1.5875 l -0.52917,-0.79375 -0.26458,-2.116667 h -0.52917 m -4.23333,17.462501 -3.16357,-10.31875 -1.06977,-4.497917 -0.26458,0.79375 c -0.53219,-0.490248 -2.00878,-1.886166 -2.44004,-0.488746 -0.45836,1.485197 1.47766,2.981613 2.02786,4.192913 1.58123,3.48122 1.55588,7.68636 4.9101,10.31875 m 3.70416,-14.816667 c -0.98764,0.983875 -1.90765,2.229729 0,2.645833 l 0.26459,-1.058333 h 0.26458 v 1.322917 h 0.52917 l 0.26458,-1.322917 -1.05833,-0.264584 -0.26459,-1.322916 m -2.11666,2.910417 c 0.67987,0.99237 1.77522,1.03415 2.91041,1.05833 v -0.26458 l -2.91041,-0.79375 m 3.35139,1.14652 0.17638,0.0882 -0.17638,-0.0882 m -2.29306,12.08264 c 0.19248,-1.42824 0.84932,-2.60166 1.19083,-3.96875 0.49772,-1.99237 -1.26893,-5.0102 -3.51165,-3.27993 -1.8134,1.39904 0.56094,6.70581 2.32082,7.24868 m -8.73125,-5.82083 1.5875,9.525 h -0.26458 l -4.23334,-7.9375 2.91042,-1.5875 m -8.202083,4.49792 6.350003,10.31875 c -2.751482,-1.18953 -4.272465,-4.54296 -5.403953,-7.14375 -0.435784,-1.00168 -1.174746,-2.06929 -0.94605,-3.175 m 11.641663,2.38125 c 2.64468,8.11404 -4.36915,16.47181 -7.672913,23.54791 h -0.264583 l 6.478006,-14.81666 1.45949,-8.73125 m -11.37708,2.64583 5.29167,9.78958 c -2.125943,-1.62604 -6.151557,-6.87364 -5.29167,-9.78958 m 18.25625,1.32292 -0.26458,0.26458 0.26458,-0.26458 m -4.23333,3.70416 v 0.26459 l -2.38125,1.5875 c 0.47494,-1.19627 1.09854,-1.70803 2.38125,-1.85209 m 1.85208,1.85209 c -0.34615,8.06208 -5.90299,13.81692 -12.7,17.72708 l 8.1092,-8.73125 2.20955,-6.35 h 0.26458 v 1.05833 l 2.11667,-3.70416 m -11.90625,5.02708 0.26458,0.52917 -0.26458,-0.52917 m 7.9375,0 c -0.76858,2.66793 -2.55459,5.45501 -4.7625,7.14375 l 4.7625,-7.14375 m 2.91042,8.46667 c 0.18072,2.29003 0.49848,4.53457 -1.85209,5.82083 l 1.85209,-5.82083 m -3.70417,1.85208 -6.87917,5.02708 12.7,-0.52916 -3.175,1.24717 -9.26041,-0.0376 -2.91042,-1.20961 9.525,-4.49792 m 7.14375,7.9375 c 0.34167,0.82065 1.52489,2.41609 1.02322,3.30463 -0.79017,1.39952 -4.91175,1.4379 -6.31489,1.45685 -3.49705,0.0472 -6.82171,0.20452 -10.318746,-0.29827 -0.919792,-0.13224 -2.898291,-0.2072 -3.404468,-1.13734 -0.497813,-0.91477 0.673247,-2.48527 1.023218,-3.32587 6.380776,0.824 11.616896,0.85841 17.991666,0 m -20.372916,6.35 c 6.408376,2.83709 16.552966,2.41075 23.018746,0 -0.91879,1.51833 -3.14551,1.63 -4.7625,1.85208 -4.27247,0.58681 -8.68736,0.7748 -12.96458,0.10841 -1.220423,-0.19014 -5.333585,-0.28432 -5.291666,-1.96049 z"
       id="path1" /></g></svg>
