<?xml version="1.0" encoding="UTF-8" standalone="no"?>
<!-- Created with Inkscape (http://www.inkscape.org/) -->

<svg
   width="677.4375"
   height="537.62915"
   viewBox="0 0 677.43751 537.62914"
   version="1.1"
   id="svg1"
   xml:space="preserve"
   inkscape:version="1.3.2 (091e20e, 2023-11-25, custom)"
   sodipodi:docname="layout-example.svg"
   xmlns:inkscape="http://www.inkscape.org/namespaces/inkscape"
   xmlns:sodipodi="http://sodipodi.sourceforge.net/DTD/sodipodi-0.dtd"
   xmlns="http://www.w3.org/2000/svg"
   xmlns:svg="http://www.w3.org/2000/svg"><sodipodi:namedview
     id="namedview1"
     pagecolor=""
     bordercolor="#000000"
     borderopacity="0.25"
     inkscape:showpageshadow="2"
     inkscape:pageopacity="0.0"
     inkscape:pagecheckerboard="0"
     inkscape:deskcolor="#d1d1d1"
     inkscape:document-units="px"
     showguides="true"
     inkscape:zoom="0.56458334"
     inkscape:cx="1091.9557"
     inkscape:cy="2857.8598"
     inkscape:window-width="1920"
     inkscape:window-height="1051"
     inkscape:window-x="-9"
     inkscape:window-y="-9"
     inkscape:window-maximized="1"
     inkscape:current-layer="layer1"><sodipodi:guide
       position="-148.75688,4405.7405"
       orientation="0,1"
       id="guide1"
       inkscape:locked="false"
       inkscape:label=""
       inkscape:color="rgb(0,134,229)" /><sodipodi:guide
       position="63.789269,3335.7405"
       orientation="0,1"
       id="guide2"
       inkscape:locked="false"
       inkscape:label=""
       inkscape:color="rgb(0,134,229)" /><sodipodi:guide
       position="839.89627,3744.7627"
       orientation="-1,0"
       id="guide3"
       inkscape:locked="false"
       inkscape:label=""
       inkscape:color="rgb(0,134,229)" /><sodipodi:guide
       position="-1070.1037,4185.7959"
       orientation="-1,0"
       id="guide4"
       inkscape:locked="false"
       inkscape:label=""
       inkscape:color="rgb(0,134,229)" /><sodipodi:guide
       position="-867.87127,3870.7405"
       orientation="0,1"
       id="guide5"
       inkscape:locked="false"
       inkscape:label=""
       inkscape:color="rgb(0,134,229)" /><sodipodi:guide
       position="-115.10374,4458.5634"
       orientation="-1,0"
       id="guide6"
       inkscape:locked="false"
       inkscape:label=""
       inkscape:color="rgb(0,134,229)" /><sodipodi:guide
       position="-267.42846,4260.7405"
       orientation="0,1"
       id="guide7"
       inkscape:locked="false"
       inkscape:label=""
       inkscape:color="rgb(0,134,229)" /><sodipodi:guide
       position="-595.10374,4235.39"
       orientation="-1,0"
       id="guide8"
       inkscape:locked="false"
       inkscape:label=""
       inkscape:color="rgb(0,134,229)" /><sodipodi:guide
       position="364.89627,4371.7737"
       orientation="-1,0"
       id="guide9"
       inkscape:locked="false"
       inkscape:label=""
       inkscape:color="rgb(0,134,229)" /><sodipodi:guide
       position="-767.00349,2250.7405"
       orientation="0,1"
       id="guide20"
       inkscape:locked="false"
       inkscape:label=""
       inkscape:color="rgb(0,134,229)" /></sodipodi:namedview><defs
     id="defs1" /><g
     inkscape:label="Layer 1"
     inkscape:groupmode="layer"
     id="layer1"
     transform="translate(-1075.1037,-3330.7405)"><path
       style="fill:none;stroke:#FFD700;stroke-width:2"
       d="m 1382.7313,3333.2475 c -22.1099,4.1844 -44.4512,5.1174 -66.6241,10.0514 -65.4089,14.5548 -139.4428,50.0932 -184.9218,122.5644 -29.9342,47.7004 -51.4433,114.7649 -30.656,177.9721 18.2167,55.3907 57.2942,89.1852 93.8777,115.5499 58.8393,42.4037 125.36,54.5454 190.1009,58.6314 41.314,2.6075 82.4486,1.1522 123.4768,-6.8137 36.2453,-7.0375 72.5231,-19.0262 106.5986,-38.3096 58.2853,-32.9838 131.2509,-97.15 119.5342,-202.0394 -3.1173,-27.906 -12.5455,-55.0738 -22.1929,-79.3832 -9.1716,-23.1103 -22.2849,-43.2604 -36.9354,-59.5375 -57.1268,-63.4699 -132.35,-85.9385 -202.5374,-95.6053 -28.7752,-3.9631 -60.8914,-8.5363 -89.7206,-3.0805 m 208.7557,323.3917 v 2.5607 c 14.0311,9.44 22.4144,-0.4667 35.5329,-9.9269 13.2928,-9.5858 26.9169,-19.2002 39.0862,-31.5885 8.3665,-8.5169 15.4358,-19.6785 23.9847,-27.6248 -4.1484,13.0443 -14.4628,24.7869 -22.2081,33.4329 -21.0241,23.4696 -50.6896,48.3167 -77.284,54.9129 6.8041,11.4298 16.1908,2.8947 23.9847,-2.1696 17.9058,-11.6345 35.0949,-28.8715 53.2993,-38.8024 -8.4453,15.049 -22.3913,25.3221 -33.7562,35.145 -35.6608,30.8226 -77.4462,49.8303 -118.1468,60.8832 l 6.2182,19.2056 -10.313,0.489 -9.2685,-15.4465 -52.3726,8.5556 2.665,28.1683 h -11.5482 l -2.436,-23.5546 -17.1071,-2.0529 -44.4161,-1.2804 -2.665,24.3271 -11.5482,-1.2804 c 0.5434,-5.8112 4.5446,-17.0977 2.4889,-22.4916 -2.1826,-5.7267 -13.5883,-5.0421 -17.5903,-5.8436 -8.0303,-1.6083 -26.4659,-10.6441 -33.6637,-4.9191 -4.0368,3.211 -6.659,12.3632 -8.9758,17.8898 l -7.9949,-3.8411 7.1066,-19.2056 c -34.4622,-14.0959 -67.3439,-29.0081 -99.492,-52.1793 -12.8945,-9.2938 -30.5194,-21.5621 -39.0862,-38.7273 23.2563,12.6864 44.9296,33.2316 68.4008,46.3354 6.4207,3.5848 18.4451,14.0324 25.3843,12.0993 6.8028,-1.8949 17.9827,-16.6064 22.585,-23.8646 -9.0228,-1.9481 -18.2836,-10.9143 -27.5379,-10.253 -6.8663,0.4908 -12.7795,11.8391 -19.5431,10.7064 -5.4234,-0.9083 -10.4196,-9.6203 -15.9898,-11.9759 -28.8983,-12.2208 -63.3137,-34.7638 -80.8373,-71.7019 l 20.4314,21.3257 44.4161,34.4674 20.4314,11.719 12.4365,-6.0541 v -2.5607 c -10.2449,-3.4993 -19.8076,-11.2383 -29.3146,-17.5302 -39.1216,-25.8913 -101.4888,-83.7543 -72.0672,-157.8812 22.601,-56.9426 77.4979,-84.3181 118.2599,-103.7094 45.8702,-21.8213 93.4308,-29.1887 141.2432,-30.895 78.1359,-2.7884 156.838,10.3971 229.1871,55.7644 15.6597,9.8196 30.8919,22.3955 44.4161,37.4214 8.0541,8.9483 15.8673,19.2345 21.8276,31.1756 4.1482,8.3103 7.9296,16.9976 9.9663,26.8879 15.1127,73.3875 -40.5822,119.1586 -77.9866,145.6504 -9.6067,6.8041 -19.8565,14.1588 -30.203,18.2376 m -455.7091,-135.7198 37.3095,-37.127 49.698,-35.9888 16.0378,-13.9497 1.7766,6.4019 c 4.0787,-1.6689 8.7492,-3.0582 12.3221,-6.4978 5.3334,-5.1343 9.5558,-16.7884 15.2159,-5.0256 3.5479,-1.3236 8.1102,-1.6582 11.2829,-4.3914 4.3905,-3.7823 13.4529,-18.9955 17.1434,-4.5712 l 18.5622,-4.9654 7.2375,-7.5005 15.9514,-4.179 c 1.4953,5.9668 3.3734,8.3364 7.9916,7.4391 4.7936,-0.9312 4.8505,-7.547 8.9387,-9.4634 8.1965,-3.8422 17.51,-0.8843 25.7092,-4.3776 l 0.8883,8.9627 14.2173,-8.6702 30.1988,-0.2925 v 8.9627 h 5.33 c 0.7059,-13.3391 24.8559,-9.9556 31.8706,-5.6669 4.3394,2.6531 3.3958,8.8899 8.9922,9.508 0.6821,-12.8887 21.2694,-9.4095 27.2597,-3.8076 4.3893,4.1048 3.7703,8.5081 10.0498,8.9291 4.0736,-20.0664 24.0321,6.1179 30.203,6.4019 l 0.8883,-6.4019 c 4.8989,2.258 7.4945,3.1238 9.7715,10.243 2.1244,-1.3264 5.3297,-5.1502 7.7262,-3.618 4.777,3.0542 8.3453,17.0604 13.5936,3.618 5.9278,2.4066 17.038,15.5722 20.4314,7.6822 2.7814,2.5946 3.8486,7.0719 6.4869,9.5297 6.1058,5.688 14.3967,7.823 21.051,12.0598 17.2526,10.9847 35.3652,24.4231 48.8578,43.7097 -19.0295,-12.9754 -35.6764,-30.2837 -55.9643,-40.1175 -5.3356,-2.5863 -15.78,-9.9588 -21.3198,-7.0174 -11.7292,6.2276 -23.2983,30.454 -31.9796,43.2937 v 1.2804 c 11.0779,9.8251 28.2128,9.9725 37.3096,24.3271 -15.8113,-7.7097 -39.3133,-34.5385 -49.7461,-2.5607 19.1201,7.5375 47.1674,31.6187 58.6293,55.0561 -20.0934,-16.6613 -38.3902,-48.962 -62.1826,-55.0561 l 10.6599,-19.2056 -15.1015,16.6448 c 3.8333,-17.3033 13.1714,-21.3372 22.2081,-30.2844 8.083,-8.0029 21.619,-24.7728 25.7613,-37.5754 -9.2759,-3.0653 -26.2027,-15.0717 -35.5329,-10.7005 -5.2412,2.4556 -9.3855,12.5881 -12.8106,18.3827 -9.281,15.7012 -18.0988,36.7368 -29.8288,48.6543 l -8.8832,-5.1215 v -1.2804 c 3.3719,0.04 7.6277,1.7727 10.6564,-0.823 4.0989,-3.5128 7.1401,-10.6224 10.1424,-15.8219 7.5846,-13.1359 21.7354,-30.533 24.5056,-47.3739 -6.86,-1.863 -20.6636,-8.4488 -27.2459,-4.3439 -6.7338,4.1992 -13.7763,32.9415 -15.3936,42.7552 l 4.4416,1.2804 -10.6598,26.8878 h -0.8884 c 1.2494,-7.127 9.7524,-20.2067 2.665,-24.3271 l -7.1066,23.0468 h -0.8883 l 23.0964,-71.701 -40.8628,-6.4019 -4.4416,26.8879 19.543,2.5607 v 1.2804 c -5.228,-0.063 -15.3142,-4.6954 -19.8522,0.036 -7.1324,7.4357 0.213,16.7434 0.6266,24.3104 0.322,5.8923 -2.7695,12.3544 -3.8707,17.9065 h -0.8884 c 0.1361,-4.291 2.2221,-10.9732 1.1584,-14.9515 -2.7167,-10.162 -6.2224,11.6374 -6.4883,13.6712 h -0.8883 l 11.5482,-72.9814 -41.7512,-2.5608 c 0,19.9517 -2.9145,39.0823 2.665,57.6169 l 24.873,2.5608 v 1.2803 c -7.198,0.3734 -20.4348,-3.9987 -25.7613,3.8412 l 20.4314,1.2803 v 2.5608 h -20.4314 v 6.4019 l -5.3299,-19.2057 -0.8884,19.2057 h -0.8883 l 2.5135,-35.8505 1.0398,-38.4113 c -6.6078,0 -24.4326,-4.7703 -29.6635,1.3159 -2.404,2.7969 -0.6167,10.2664 -0.5524,14.0486 0.2455,14.4448 1.6954,28.0286 2.6779,42.2524 l 20.4314,1.2804 v 1.2803 l -21.3197,2.5608 v 1.2804 l 20.4314,1.2803 v 2.5608 l -20.4314,1.2804 v 2.5607 l 18.6548,1.2804 v 1.2804 h -21.3198 l -0.8883,-19.2057 -5.3299,1.2804 v 16.6449 c -7.5583,-9.3181 -17.4995,-2.6732 -26.6497,-5.1215 v -1.2804 l 23.9847,-1.2804 v -5.1215 h -22.2081 v -1.2803 l 22.2081,-1.2804 c 1.0212,-5.0776 2.6108,-6.8715 6.2183,-7.6823 l -1.7767,-48.6542 c -67.8374,0 -144.234,19.1164 -205.2023,63.0545 -12.1378,8.7473 -23.5479,19.2083 -34.6446,30.4592 -3.6061,3.6563 -10.5915,9.2784 -12.2254,15.4328 -1.6703,6.2912 3.6547,17.6023 5.6788,22.9321 7.7489,20.4038 23.4731,44.4562 39.4145,51.215 l 11.5482,-24.3271 -9.7715,25.6075 13.8663,5.574 11.895,-23.4993 c -2.0026,6.9331 -12.116,24.7227 -4.4416,28.1683 l 7.9949,-21.7664 -6.2182,23.0468 c 7.1115,-1.6682 8.8354,-16.7324 14.2131,-23.0468 l -7.1066,25.6075 c 3.4238,0.9297 8.134,3.3388 11.5482,1.7377 8.9753,-4.2091 17.3387,-26.6745 24.0642,-36.0905 18.8207,-26.35 42.0816,-56.6025 67.4329,-68.9021 22.4187,-10.8768 48.588,-8.1377 71.9541,-8.1377 45.893,0 101.3792,-11.6451 143.0199,22.4935 18.9968,15.5742 35.7831,36.4396 49.6713,60.7309 3.9592,6.9246 10.9997,32.4887 17.0461,33.9446 1.6896,0.4069 3.5948,-0.429 5.2367,-0.9247 13.815,-4.1707 4.5671,-16.3392 -0.8884,-27.8984 l 15.9898,23.0467 -8.8832,-25.6075 h 0.8883 c 3.2522,9.1825 8.8451,24.4083 16.8782,21.7664 l -15.1015,-32.0094 c 5.8849,7.472 15.934,33.3903 23.9847,28.1683 l -15.1015,-30.729 c 6.4685,6.5675 14.7685,29.5326 23.0964,26.8878 -2.7463,-11.9346 -10.9234,-23.0415 -16.8781,-32.0093 5.8051,5.8939 10.5098,13.9088 15.0171,21.7603 1.3885,2.4186 3.5366,7.8743 6.2368,6.726 5.9864,-2.5459 -5.4781,-17.2587 -7.0401,-19.5237 -11.7988,-17.1095 -24.6003,-29.648 -37.3102,-44.8131 14.4224,6.0001 27.8761,26.0716 38.1978,40.972 2.5101,3.6233 9.1978,18.5842 13.2118,16.9629 6.2597,-2.5285 -5.4139,-17.2462 -6.9935,-19.5237 -6.5883,-9.4997 -13.053,-19.0637 -20.4314,-27.3167 -5.2277,-5.8473 -11.7558,-10.1125 -15.9898,-17.4964 14.6077,8.8124 27.1829,26.3011 38.1971,42.2524 4.3503,6.3 8.2742,18.5376 15.1022,14.0841 -7.109,-30.1505 -33.3425,-40.3281 -46.1927,-62.7384 18.2594,11.0153 36.6502,34.8362 47.081,58.8973 l 5.33,-3.8412 c -8.5543,-27.6634 -29.7937,-40.9416 -44.4161,-60.1776 18.2867,7.7531 34.7071,34.8445 45.3044,56.3365 h 1.7766 c 6.5617,-13.9032 13.262,-26.8955 16.0803,-43.5327 13.6883,-80.8069 -59.6361,-124.4397 -101.3592,-145.3167 -35.8159,-17.9213 -73.4627,-27.0693 -111.0403,-32.8679 -79.9948,-12.3441 -162.22,-5.4352 -238.9586,31.796 -42.7287,20.7305 -104.8219,59.4584 -104.8219,134.8652 m 246.0651,-161.3273 c 2.6151,17.4051 -10.1668,14.8192 -18.6548,15.4138 -2.8493,0.1998 -7.6306,2.732 -10.1238,-0.086 -2.0907,-2.3629 -1.4226,-8.1389 -1.4243,-11.4867 l 30.2029,-3.8411 m 45.3044,12.8037 h -36.4212 c 0.01,-3.4357 -0.5589,-9.0319 1.5478,-11.4879 1.8137,-2.1145 5.1774,-1.3144 7.3355,-1.3158 5.86,0 21.4547,-4.0012 26.1136,1.3158 2.0875,2.3824 1.4226,8.126 1.4243,11.4879 m 38.1979,2.5608 -23.0964,-1.2755 -8.8551,-2.0579 -0.029,-10.7508 c 9.7679,0 31.9349,-4.1559 31.9796,14.0842 m -126.1417,-8.9627 c -0.036,14.9517 -8.1641,14.2655 -16.8781,15.3645 -2.3282,0.2936 -6.2973,2.1766 -8.3472,-0.055 -6.0303,-6.5631 3.2293,-12.2618 6.5705,-12.8136 2.3745,-0.3922 4.7392,-0.909 7.1066,-1.3831 3.887,-0.7785 7.6245,-1.1128 11.5482,-1.1134 m 162.5629,14.0841 c -8.9769,0 -29.1557,2.4929 -30.2029,-14.0841 7.8737,0 31.6902,-2.1436 30.2029,14.0841 m -196.3191,-7.6822 c 3.5806,17.6688 -15.7457,16.9681 -23.9847,19.2056 -3.5557,-17.5365 15.9851,-16.3651 23.9847,-19.2056 m 227.4104,14.0841 c -7.5382,-2.0185 -21.2434,0.6718 -23.9847,-11.5234 5.7351,-2.4381 25.8988,-0.6074 23.9847,11.5234 m -106.5986,-3.8411 v 2.5607 l -35.5329,1.2804 c 0.8316,-7.1826 4.5512,-6.3991 8.8832,-6.4019 8.3405,0 18.6748,-0.837 26.6497,2.5608 m -149.2382,-1.2804 c -0.024,9.7406 -11.005,23.2661 -17.9912,15.3101 -4.0439,-4.6054 2.2359,-9.4054 4.6671,-10.6046 1.7515,-0.8637 3.5316,-1.5202 5.3293,-2.1447 2.67,-0.9278 5.2785,-1.9853 7.9948,-2.5608 m 104.8221,5.1215 c -3.9343,1.7975 -7.476,2.2101 -11.5482,2.778 -2.686,0.3747 -5.2911,0.9351 -7.9949,1.077 -26.5936,1.3947 15.9506,-19.4566 19.5431,-3.855 m 84.3906,-1.2804 v 2.5608 c -9.4291,3.2355 -24.5821,1.9155 -33.7563,-2.5608 v -2.5607 c 10.1204,-3.4728 23.827,-1.4609 33.7563,2.5607 m 98.6037,3.8412 v 1.2803 l -24.873,-2.5607 v -6.4019 l 24.873,7.6823 m -63.0709,1.2803 v 2.5608 c -7.8621,3.1156 -21.5196,-0.489 -29.3146,-3.8411 v -2.5608 c 8.256,-3.2717 21.1355,0.5283 29.3146,3.8411 m -162.5629,-3.8411 c -1.2075,10.4301 -20.8869,12.3455 -26.6497,8.9626 5.4357,-8.479 18.9914,-8.9321 26.6497,-8.9626 m 254.9484,16.6449 c -6.4089,-2.6021 -18.305,-3.2503 -22.208,-11.5234 5.3344,-1.9375 22.316,1.7875 22.208,11.5234 m -60.4059,-1.2804 c -6.0532,-1.1267 -19.4588,-1.4487 -23.0963,-8.9626 6.2656,0 20.7682,-1.3951 23.0963,8.9626 m -284.263,-7.6822 c -0.116,14.109 -13.8781,17.3764 -22.2081,17.9252 0.3024,-13.1145 14.6203,-17.0319 22.2081,-17.9252 m 55.9643,0 c -2.6773,7.1689 -22.6448,15.9835 -24.8731,6.4018 l 24.8731,-6.4018 m 259.39,11.5233 c -3.1188,6.9073 -23.02,1.2 -24.873,-6.4018 l 24.873,6.4018 m -287.8164,-2.5607 c -3.2074,8.1246 -12.6194,10.0576 -18.6547,10.243 4.2887,-7.1918 12.2331,-10.0264 18.6547,-10.243 m 297.588,3.8411 c 5.9233,3.2209 18.294,3.0424 20.4314,12.8038 -4.7764,-0.1429 -22.7588,-2.4389 -20.4314,-12.8038 m -325.1259,5.1215 c -3.5243,8.9498 -15.4464,13.287 -22.2081,14.0841 1.2209,-10.1408 16.2224,-11.8464 22.2081,-14.0841 m 93.2738,15.3645 c 4.621,10.5071 6.5181,23.2277 10.0937,34.5138 3.5885,11.3266 9.6476,18.9821 6.7844,33.3461 l -8.8832,-20.486 3.5533,20.486 h -0.8884 l -6.2182,-23.0468 c 7.9695,-10.6163 -5.6059,-31.4757 -4.4416,-44.8131 m -55.9643,15.3645 16.8781,29.4486 c -6.5354,-3.6594 -16.1533,-19.0972 -16.8781,-29.4486 m 207.8674,8.109 c 0.6869,0 0.1424,0.6375 -0.2961,0.4269 l 0.2961,-0.4269 m 73.7307,9.8163 v 1.2803 l -27.538,-6.4018 c 5.7183,-9.863 20.6415,0.7152 27.538,5.1215 m -296.6995,1.2803 v 1.2804 l -18.6548,10.243 c 10.1924,20.8413 27.979,-0.8349 42.6394,-2.5607 v 1.2803 l -33.7562,15.3645 7.1066,14.0842 c -7.0035,-3.9097 -13.5527,-13.1083 -19.5397,-19.6858 -2.1184,-2.3275 -5.4782,-5.3793 -5.554,-9.7254 -0.129,-7.3912 5.3134,-5.329 6.4389,-0.037 l 21.3198,-10.243 m 15.1014,3.8411 v 1.2804 l -29.3146,12.8038 c 5.939,-9.3635 20.7638,-13.0775 29.3146,-14.0842 M 1552.4,3477.387 v 1.2804 l -19.5431,-6.4019 c 5.3916,-3.0332 14.4262,1.9484 19.5431,5.1215 m 23.9847,-3.8411 c 13.4995,5.5216 35.8868,12.3331 45.3044,28.1682 -11.7154,-2.2683 -24.2357,-14.3289 -35.5329,-20.077 -2.7524,-1.4005 -10.3341,-3.0654 -9.7715,-8.0912 m -229.1871,7.6822 v 1.2804 l -26.6497,6.4019 c 7.406,11.2116 20.7776,5.1215 31.0913,5.1215 v 1.2804 l -27.538,3.435 -15.9898,-16.2388 12.4365,20.486 c -3.6198,-3.0159 -21.5679,-22.2438 -12.3836,-27.1931 5.6162,-3.0267 7.775,7.4532 12.4186,9.0356 7.4845,2.5506 18.6525,-3.6077 26.6147,-3.6089 m -47.0811,-3.8411 v 1.2804 l -32.8679,16.6449 c 5.149,-10.4779 24.2985,-16.847 32.8679,-17.9253 m 185.6593,5.1215 v 2.5608 l -15.9898,-2.5608 h 15.9898 m 85.279,-1.2804 43.5278,25.6075 v 1.2804 c -11.5743,-2.5127 -22.6939,-13.2797 -33.7563,-18.773 -2.6512,-1.3165 -10.3845,-3.1324 -9.7715,-8.1149 m -30.203,7.6823 v 1.2804 l -15.1015,-3.8412 c 4.7946,-2.8987 10.5299,-0.2743 15.1015,2.5608 M 1240.599,3487.63 v 1.2804 l -31.9796,20.486 v 2.5607 c 12.782,4.3271 27.2403,-18.1979 40.8628,-19.2056 v 1.2804 l -32.8679,21.7664 v 1.2803 l 12.9478,7.454 30.58,-21.5381 c -2.6269,5.7979 -8.2578,8.9091 -12.4365,12.0983 -4.967,3.7909 -12.1258,11.9856 -17.7665,12.5528 -10.4217,1.0481 -26.0001,-15.0896 -35.5328,-20.81 l 2.6649,-10.243 c 5.0207,1.4612 7.683,5.2751 7.1066,12.8038 10.5829,-9.3357 23.8385,-20.1829 36.4212,-21.7664 m 99.492,1.2804 v 1.2804 l -15.9898,2.5607 15.9898,-3.8411 m 41.7512,1.2804 v 1.2803 h -18.6548 l 18.6548,-1.2803 m 68.4008,-1.2804 v 2.5607 l -19.5431,-1.2803 19.5431,-1.2804 m 179.441,6.4019 c 3.9427,15.6235 -7.7412,17.1263 -15.9898,21.3721 -6.7939,3.4971 -15.761,11.0756 -23.0963,10.3448 -10.5091,-1.0471 -21.9475,-13.9912 -31.9796,-18.9132 v -1.2804 l 32.8679,16.7486 13.3248,-7.7859 -40.8628,-25.6075 c 4.1901,-2.1425 9.363,1.8592 13.3248,4.1009 9.2418,5.229 21.3373,16.4975 31.0913,18.0388 8.5562,1.3521 14.0101,-14.0434 21.3197,-17.0182 m -121.7001,-3.4144 c 0.687,0 0.1423,0.6374 -0.2961,0.4267 l 0.2961,-0.4267 m -26.6497,2.134 v 1.2804 h -11.5482 v -2.5608 l 11.5482,1.2804 m -182.9943,1.2804 v 1.2803 l -19.5431,8.9627 10.6599,15.3645 -13.3249,-9.2088 -16.8781,11.7695 -45.3043,40.972 v 2.5608 c 5.9595,1.8052 9.8594,-6.305 14.2131,-11.2538 9.7027,-11.0291 20.5838,-22.6315 31.9796,-29.7182 l -39.9745,47.3738 c 6.3055,-2.161 10.1569,-10.2327 15.1021,-15.7933 10.5787,-11.8949 24.1139,-28.0664 37.3089,-32.8609 v 1.2804 l -33.7563,34.0721 -15.1014,16.9728 -20.4314,-8.7926 c 4.124,-12.7111 12.0965,-11.4081 18.6547,-18.8836 22.4945,-25.6405 48.3403,-48.6524 76.3957,-54.0977 m 235.4053,5.1215 v 1.2803 l -14.2131,-5.1215 14.2131,3.8412 m -278.9331,-2.5608 c -3.7343,9.4845 -22.7797,21.1394 -30.2029,23.0468 6.4137,-11.7809 20.58,-18.3547 30.2029,-23.0468 m 55.9643,0 c -3.9543,8.3274 -19.025,12.36 -25.7614,12.8038 v -1.2804 l 25.7614,-11.5234 m 358.8821,0 0.8884,2.5608 -0.8884,-2.5608 m -357.1055,7.6823 v 1.2803 l -20.4314,11.5234 c 4.7538,-6.9194 13.811,-11.3745 20.4314,-12.8037 m 323.3493,5.1215 c 13.1814,9.9734 33.4959,27.3499 39.9745,47.3738 -10.6458,-9.5555 -19.9713,-22.4031 -30.203,-32.9173 -3.3682,-3.4613 -9.8696,-7.8526 -9.7715,-14.4565 m -78.1724,2.5607 40.8629,33.1109 14.2131,18.1041 -14.2131,-13.2365 -28.4263,-25.5245 -12.4366,-12.454 m -321.5725,110.1123 c 67.351,18.8254 135.1304,17.9252 203.4257,17.9252 48.9558,0 102.3469,2.4532 150.1264,-15.3645 -1.6945,-13.6935 -9.6686,-26.6584 -15.6477,-37.1309 -17.8314,-31.232 -42.0984,-58.117 -69.6312,-68.3341 -25.3647,-9.4125 -53.0343,-5.9276 -79.0607,-5.9276 -19.5519,0 -39.1454,1.2786 -58.6292,1.2804 -14.2453,0 -29.71,-2.0252 -43.5278,3.8874 -23.4509,10.0347 -44.3314,35.682 -61.2942,60.1313 -8.8093,12.6972 -20.8104,26.6746 -25.7613,43.5328 m -50.6343,-104.9908 -20.4314,23.3807 -15.9899,18.8717 c 3.4717,-17.8271 25.1601,-35.459 36.4213,-42.2524 m 81.7255,2.5608 v 1.2803 l -5.3299,2.5608 5.3299,-3.8411 m -72.8423,1.2803 v 1.2804 l -24.873,27.2543 -15.1015,18.8392 c 3.7896,-19.6535 26.9499,-41.9658 39.9745,-47.3739 m 25.7613,10.243 v 1.2804 l -16.8781,-8.9626 c 5.3208,-2.2677 12.2575,4.1928 16.8781,7.6822 m 397.0799,-8.9626 v 1.2804 l -18.6547,8.9626 c 3.3627,-7.7664 12.7635,-9.1465 18.6547,-10.243 m -417.5113,2.5608 -14.2131,17.6703 -25.7614,32.2643 c 1.4148,-7.4651 5.7111,-12.2163 9.3953,-17.5647 8.8189,-12.8029 18.9758,-25.1633 30.5792,-32.3699 m 78.1723,0 -23.9847,27.4627 -24.873,30.1541 c 1.5793,-8.1892 6.5256,-13.5127 10.6605,-19.2056 10.669,-14.689 24.8021,-29.3843 38.1972,-38.4112 m -74.619,6.4018 -14.2132,18.2454 -23.9846,31.6893 c 2.7635,-19.7418 26.0752,-42.6215 38.1978,-49.9347 m 324.2375,90.9067 h -0.8883 c -9.7302,-19.524 -20.0851,-38.3885 -30.0905,-57.6169 -4.4614,-8.574 -9.0792,-21.3152 -15.2935,-27.3957 -6.2831,-6.1481 -23.4303,-2.178 -31.0117,-2.0481 -23.6385,0.4054 -47.3596,1.2755 -71.0658,1.2755 -8.0033,0 -22.1008,-3.9075 -29.3139,1.3159 -6.0502,4.3813 -10.7784,15.8805 -15.253,23.0113 -11.9928,19.1117 -23.6849,44.9416 -38.0471,60.1776 7.9731,-22.5116 23.2372,-42.4054 34.6446,-61.458 4.5568,-7.6109 9.6514,-19.7129 15.9898,-24.2917 4.9909,-3.6053 13.1829,-2.5962 18.6548,-2.5962 h 38.1978 c 18.0031,-0.013 36.1163,-1.2804 54.1877,-1.2804 6.879,0 16.607,-2.513 23.0834,1.1441 5.8157,3.2839 9.9385,14.9325 13.4722,21.9027 10.2348,20.1882 27.2614,44.0728 32.7335,67.8599 m 194.5425,-90.9067 c 2.889,12.8012 5.3231,26.113 5.3231,39.6917 0,80.9051 -62.6188,122.7665 -107.4801,145.5675 -16.9493,8.6146 -36.0624,17.781 -54.1877,18.3205 v -1.2804 c 12.6876,-4.2308 25.1586,-11.9944 37.3096,-18.6624 40.4928,-22.2205 87.9285,-57.8883 109.5611,-114.4966 4.9416,-12.931 7.6845,-26.2979 8.4569,-40.972 0.4646,-8.8255 -1.3716,-19.9632 1.0171,-28.1683 m -164.3396,1.2804 c 12.4541,11.026 32.7148,26.401 39.0862,46.0935 l -28.4263,-32.8096 -10.6599,-13.2839 m -453.0442,1.2804 c 0,23.4493 0.8754,45.1213 8.3239,66.5795 8.5698,24.6878 24.3317,44.8712 39.6455,60.716 27.5188,28.4727 59.3397,50.1115 90.6088,68.6019 v 1.2803 c -11.443,-2.221 -22.838,-7.9849 -33.7561,-13.2306 -34.87,-16.7531 -76.9196,-44.93 -96.6455,-91.7601 -9.7476,-23.1413 -18.9159,-66.5147 -8.1766,-92.187 m 103.9337,2.5607 -23.9847,30.7339 -15.1014,21.7615 c 4.6534,-21.0052 24.9963,-45.0602 39.0861,-52.4954 m 6.2183,3.8412 v 1.2803 l -38.1979,51.215 c 3.8132,-18.5457 24.9911,-48.0223 38.1979,-52.4953 m 402.4098,12.8037 c 7.2984,17.1718 -8.8124,26.6422 -18.6547,30.729 l -0.8884,-1.2804 14.0028,-15.735 5.5403,-13.7136 m -416.623,23.0468 c -1.7791,8.9013 -5.6709,22.4872 -11.5482,26.8878 1.9306,-9.4598 6.5079,-20.2303 11.5482,-26.8878 m 5.33,2.5607 c -1.746,8.555 -6.0441,22.4187 -11.5482,26.8879 l 11.5482,-26.8879 m -130.5834,43.5328 c -5.1687,94.3986 65.6935,157.678 118.1469,190.0348 76.3736,47.1125 155.092,57.4342 237.1819,54.5355 65.1885,-2.3019 126.5589,-7.4116 188.3243,-41.2368 39.9234,-21.8636 79.7263,-51.5662 107.5583,-99.6232 17.0752,-29.4837 27.8231,-59.6343 25.69,-98.5888 h -0.8883 c -2.1435,35.4278 -22.1388,70.4397 -39.9745,92.7302 -41.1272,51.4 -88.1964,72.185 -140.3549,88.9347 -100.3421,32.223 -206.8449,30.6653 -307.3594,1.6845 -61.0984,-17.6162 -117.6934,-45.44 -160.6348,-114.2092 -8.2197,-13.1637 -15.3001,-28.5603 -20.2059,-44.8131 -2.8532,-9.4525 -4.1142,-20.5116 -7.4836,-29.4486 m 497.4603,17.9252 c 11.1737,24.5859 39.7714,-4.298 52.411,-12.8037 l -15.9898,2.5607 -36.4212,10.243 m -358.882,-12.8037 v 1.2803 c 10.3466,6.2088 31.9616,28.5333 40.8627,8.9627 l -40.8627,-10.243 m 35.5328,23.0467 c 8.4484,3.2538 17.5731,2.4277 23.9847,-7.6822 -7.4938,-2.5717 -19.4236,-3.0357 -23.9847,7.6822 m 302.0295,-5.1215 v 1.2804 c 11.2179,7.5491 16.0237,11.37 28.4263,7.6822 -5.9666,-15.1642 -18.7965,-10.7551 -28.4263,-8.9626 m -287.8163,11.5234 c 13.9921,8.9396 33.7994,17.4089 42.6394,-7.6823 -14.6102,-5.0275 -30.2311,-6.7666 -42.6394,7.6823 m 260.2783,-6.4019 c 9.5066,23.6394 18.8277,14.6892 33.7562,11.5234 -9.4141,-13.6881 -21.1817,-16.9308 -33.7562,-11.5234 m -228.2988,20.486 c 8.1277,1.5774 25.0918,13.2067 32.7137,7.5962 5.5081,-4.0544 9.7863,-17.9282 12.5907,-25.5214 -15.9088,-4.2569 -35.8509,-5.263 -45.3044,17.9252 m 186.5477,-15.3645 c 1.8326,7.2038 6.3323,20.6327 11.5839,23.5546 9.4136,5.2373 24.8207,-5.787 34.6088,-6.9097 -8.0881,-25.0038 -29.9257,-23.5753 -46.1927,-16.6449 m -144.7966,25.6075 c 12.0471,5.4909 27.3831,6.2517 39.9745,6.4019 0.9597,-6.7014 6.724,-25.2208 3.5253,-31.0591 -2.3176,-4.2298 -10.0035,-2.2307 -13.2968,-2.2307 -5.2653,0 -14.7037,-2.6007 -19.3566,1.3159 -5.1798,4.3602 -8.6351,17.9166 -10.8464,25.572 m 103.0454,-24.3271 3.7089,28.676 11.3926,1.5096 29.3146,-4.5781 c -0.9469,-7.6522 -5.3962,-22.5314 -10.1176,-26.8524 -3.1377,-2.8715 -7.8075,-0.7186 -11.2021,-0.2529 -7.6845,1.054 -15.5278,-1.0995 -23.0964,1.4978 m -213.1973,5.1215 c 6.0753,11.1412 16.1764,4.1408 23.0964,-2.5608 -8.3287,-5.581 -15.1714,-3.5224 -23.0964,2.5608 m 159.0097,25.6075 c 15.3417,1.7451 32.7436,4.074 47.9694,0 l -1.7767,-30.729 c -9.8089,-2.6248 -20.2524,-1.2804 -30.2029,-1.2804 -2.9376,0 -8.4377,-1.4924 -10.8922,1.3159 -3.9278,4.4938 -4.4755,23.7503 -5.0976,30.6935 m 189.2126,-24.3271 v 2.5607 c 8.6158,7.6003 12.9308,8.8142 22.208,2.5608 -7.2621,-9.0945 -13.4879,-10.5306 -22.208,-5.1215 m -32.8679,14.0841 c 2.9853,8.2962 10.8812,23.4401 17.7664,25.0819 7.9548,1.8967 23.2429,-8.2725 30.203,-13.5585 -13.8769,-19.1395 -30.8238,-22.478 -47.9694,-11.5234 m -277.1565,24.3271 c 10.3953,5.7799 21.1777,9.1885 31.9796,12.9697 3.605,1.2619 8.8164,4.7357 12.4235,2.3088 6.3814,-4.2935 11.0611,-19.511 14.2261,-28.0822 -11.162,-2.1666 -24.3163,-12.0773 -35.5329,-10.7508 -6.9117,0.8172 -19.1307,15.8111 -23.0963,23.5545 m 232.7404,-11.5234 c 1.6526,8.2524 7.3832,26.9024 13.4791,29.8419 3.2222,1.5537 8.1896,-1.2026 11.3939,-2.217 8.9337,-2.8284 17.8447,-6.1248 26.6496,-9.6996 -1.5447,-8.5619 -9.8053,-24.5408 -15.9898,-26.9956 -8.6456,-3.4318 -26.7691,5.9584 -35.5328,9.0703 m -353.5522,-6.4018 c 11.6337,7.9305 22.2756,19.2964 33.7563,27.8372 22.332,16.6135 45.3155,30.0815 69.2891,40.8663 10.459,4.7051 21.2309,7.943 31.9795,10.9316 3.9061,1.086 9.7477,3.9043 13.6635,2.0795 3.3645,-1.5678 4.6178,-7.531 7.6562,-10.0136 l -4.4416,19.2056 c -54.711,-6.2324 -109.3456,-43.2488 -152.7913,-89.6263 l 0.8883,-1.2803 m 537.4348,1.2803 c -6.7173,12.6222 -19.0519,20.6814 -28.4263,28.6761 -29.0445,24.77 -63,42.0083 -95.9388,52.2562 -13.3406,4.1506 -43.4605,22.1872 -44.4161,-7.9509 h 0.8884 c 6.6534,19.1458 32.6345,4.0821 44.4161,-0.1621 28.2206,-10.1662 55.286,-23.7069 81.7256,-41.2051 14.2528,-9.4327 27.3378,-22.919 41.7511,-31.6142 m -362.4354,37.1309 50.6344,10.243 5.3299,-34.5701 c -9.6388,-0.2868 -19.7509,-2.564 -29.3146,-4.3845 -3.7424,-0.7124 -10.3391,-3.5139 -13.8766,-1.2399 -5.6053,3.6032 -10.5152,22.1369 -12.7731,29.9515 m 181.2177,1.2804 c -1.9418,-8.2195 -5.7448,-24.5773 -11.0066,-29.4132 -5.725,-5.2614 -20.6958,1.0551 -27.1912,2.1598 -4.0715,0.6924 -13.1073,-1.622 -15.9651,3.6938 -1.9642,3.6536 -0.4157,10.5352 0.047,14.597 0.5198,4.5667 0.284,12.2634 2.5389,15.8723 4.3334,6.9352 23.5119,-0.5789 29.3695,-1.5896 7.4141,-1.2795 14.9711,-2.6215 22.2081,-5.3201 m -120.8119,10.243 h 57.741 l -1.7767,-34.5701 h -37.3095 c -3.5053,0 -10.6535,-1.9517 -13.5668,1.3158 -4.4438,4.9841 -5.0445,25.6836 -5.088,33.2543 m 79.0607,29.4486 c 9.336,-0.2778 19.1492,-1.3436 28.4263,-2.9264 5.3371,-0.9105 12.3597,-4.1716 17.6732,-2.8512 3.6069,0.8964 7.4909,12.021 5.9976,16.8948 -1.5239,4.9739 -9.0735,4.1362 -12.1226,4.2651 -11.7154,0.4951 -23.8881,2.202 -35.5329,4.1889 -29.853,5.0934 -60.6806,2.8541 -90.6088,0.9651 -24.3154,-1.5346 -49.7403,-2.5707 -73.7308,-9.0129 l 4.4416,-19.2056 c 16.4503,4.4043 35.4877,1.1519 51.3911,8.0882 4.4648,1.9473 1.4741,10.9918 6.4019,13.1228 17.1717,7.4261 39.8845,3.1161 57.6889,3.1161 9.6328,0 19.7572,1.2661 29.3147,-0.5434 2.6995,-0.5111 7.1745,0.1809 9.2355,-2.7899 2.1538,-3.1048 1.424,-9.3259 1.4243,-13.3116 z"
       id="path1" /></g></svg>
